<svg id="eIFsaPX3znh1" xmlns="http://www.w3.org/2000/svg" xmlns:xlink="http://www.w3.org/1999/xlink" viewBox="0 0 950 950" shape-rendering="geometricPrecision" text-rendering="geometricPrecision" project-id="ee6118753a5e4c88bb736ffb13ac0963" export-id="36bfe11e0b7f4c9f985b30e208e8cee0" cached="false"><g transform="translate(-232.110153-223.200943)"><path d="M329.68196,1159.20094c-.00746,0-.01492,0-.02238,0h224.62216-224.59978Zm-83-83v-754c0-45.83963,37.16037-83,83-83h753c45.83963,0,83,37.16037,83,83v334.96092L505.29412,998.02554c-45.89976,23.69147-97.47555,15.06327-115.19774-19.27163L247.11022,701.73313v378.46781c0,2.44806.11135,4.87011.32926,7.26136-.49952-3.68254-.75752-7.44182-.75752-11.26136Z" fill="#fff" stroke-width="0"/><ellipse rx="79.4918" ry="79.4918" transform="translate(967.128 474.337)" fill="#000" stroke-width="0"/><path d="M1567.11022,1152.20097c-48.04877,0-87-38.95123-87-87v-746c0-48.04877,38.95123-87,87-87h746c48.04877,0,87,38.95123,87,87v746c0,48.04877-38.95123,87-87,87h-746Zm740.69235-11c45.27393,0,81.9757-36.77605,81.9757-82.14161v-735.71677c0-45.36556-36.70177-82.14161-81.9757-82.14161h-736.04861c-45.27393,0-81.9757,36.77605-81.9757,82.14161v735.71677c0,45.36556,36.70177,82.14161,81.9757,82.14161h736.04861Z" transform="translate(-1233 7)" fill="#000" stroke-width="15"/><ellipse rx="79.4918" ry="79.4918" transform="translate(443.462 474.337)" fill="#000" stroke-width="0"/><path d="M320.4195,1178.41774c-43.6305,0-79-35.3695-79-79v-378.46781L384.40566,997.97071c17.72219,34.3349,69.29798,42.9631,115.19774,19.27163l660.38784-340.86368v423.03909c0,43.6305-35.3695,79-79,79l-760.57174-.00001Z" transform="translate(5.69072-19.2168)" fill="#000" stroke-width="0"/></g></svg>
